<svg version="1.1" xmlns="http://www.w3.org/2000/svg" viewBox="0 0 1166.1174299125234 678.9699491169426" width="1166.1174299125234" height="678.9699491169426" filter="invert(93%) hue-rotate(180deg)">
  <!-- svg-source:excalidraw -->

  <defs>
    <style class="style-fonts">
      @font-face {
        font-family: "Virgil";
        src: url("https://excalidraw.com/Virgil.woff2");
      }
      @font-face {
        font-family: "Cascadia";
        src: url("https://excalidraw.com/Cascadia.woff2");
      }
    </style>
  </defs>
  <g stroke-linecap="round" transform="translate(455.45076324585716 134.99999999999983) rotate(0 350.33333333333314 265.83333333333326)"><path d="M7.86 8.16 C7.86 8.16, 7.86 8.16, 7.86 8.16 M7.86 8.16 C7.86 8.16, 7.86 8.16, 7.86 8.16 M3.66 19.09 C8.27 15.43, 14 8.69, 18.1 2.48 M3.66 19.09 C8.92 14.14, 14.85 7.41, 18.1 2.48 M2.75 26.24 C9.82 17.51, 14.8 6.78, 24.4 1.33 M2.75 26.24 C9.3 22.46, 11.02 16.21, 24.4 1.33 M1.83 33.39 C6.78 28.73, 16.72 14.47, 30.7 0.18 M1.83 33.39 C13.77 17.84, 24.25 6.98, 30.7 0.18 M1.57 39.79 C11.26 29.25, 21.36 18.76, 34.37 2.05 M1.57 39.79 C10.02 31.24, 15 25.6, 34.37 2.05 M1.96 45.43 C16.03 36.48, 21.62 20.76, 39.36 2.41 M1.96 45.43 C16.74 28.26, 31.91 12.36, 39.36 2.41 M1.7 51.83 C11.46 37.48, 24.9 22.94, 45 2.02 M1.7 51.83 C14.45 36.64, 28.66 19.44, 45 2.02 M1.44 58.23 C13.51 45.11, 25.92 31.43, 49.99 2.38 M1.44 58.23 C14.64 44.59, 24.58 28.54, 49.99 2.38 M1.83 63.87 C12.83 49.33, 23.16 40.39, 55.63 1.98 M1.83 63.87 C14.88 50.68, 24.1 35.73, 55.63 1.98 M1.57 70.27 C22.7 52.65, 39.39 33.39, 60.62 2.34 M1.57 70.27 C22.87 45.39, 46.63 18.47, 60.62 2.34 M1.97 75.91 C29.99 50.21, 53.58 23.24, 66.26 1.95 M1.97 75.91 C19.74 52.96, 40.02 32.85, 66.26 1.95 M1.71 82.31 C17.68 66.59, 33.29 47.65, 71.25 2.31 M1.71 82.31 C23.82 55.28, 48.13 29.84, 71.25 2.31 M1.44 88.71 C25.92 63.07, 49.61 28.39, 76.89 1.91 M1.44 88.71 C24.18 61.53, 48.09 33.7, 76.89 1.91 M1.84 94.35 C26.31 68.94, 49.44 39.13, 81.88 2.27 M1.84 94.35 C26.6 68.16, 47.47 38.06, 81.88 2.27 M1.58 100.75 C23.78 73.91, 52.35 38.73, 87.52 1.88 M1.58 100.75 C33.48 65.45, 64.81 27.15, 87.52 1.88 M1.97 106.39 C31.54 74.65, 64.93 32.43, 92.51 2.24 M1.97 106.39 C23.62 83, 41.65 61.46, 92.51 2.24 M1.71 112.79 C29.11 81.14, 51.46 53.15, 98.15 1.85 M1.71 112.79 C32.18 80.64, 61.41 43.79, 98.15 1.85 M1.45 119.19 C40.44 76.2, 81.13 32.91, 103.14 2.21 M1.45 119.19 C27.94 89.6, 58.05 57.24, 103.14 2.21 M1.84 124.83 C35.53 88.92, 66.1 49.75, 108.78 1.81 M1.84 124.83 C40.45 81.2, 78.35 34.78, 108.78 1.81 M1.58 131.23 C31.14 98.63, 61.94 59.05, 113.77 2.17 M1.58 131.23 C23.59 105.84, 48.1 78.7, 113.77 2.17 M1.98 136.87 C24.09 104.95, 57.32 75.26, 119.41 1.78 M1.98 136.87 C29.16 103.29, 61.99 68.1, 119.41 1.78 M1.72 143.27 C37.06 101.59, 74.87 64.67, 124.4 2.14 M1.72 143.27 C26.66 113.17, 52.54 84.32, 124.4 2.14 M1.45 149.67 C52.9 93.72, 103.77 36.47, 130.04 1.74 M1.45 149.67 C39.46 106.07, 78.5 65.08, 130.04 1.74 M1.85 155.31 C29.89 127.44, 59.39 88.98, 135.03 2.1 M1.85 155.31 C28.07 121.04, 55.4 90.24, 135.03 2.1 M1.59 161.71 C34.12 119.23, 70.17 85.82, 140.67 1.71 M1.59 161.71 C43.85 111.69, 87.8 62.13, 140.67 1.71 M1.98 167.35 C40.58 127.67, 77.75 79.46, 145.66 2.07 M1.98 167.35 C55.14 104.28, 112.01 43.64, 145.66 2.07 M1.72 173.75 C59.79 106.44, 113.43 43.71, 150.65 2.43 M1.72 173.75 C49.42 120.82, 100.16 61.79, 150.65 2.43 M1.46 180.14 C60.94 110.98, 121.03 38.48, 156.29 2.03 M1.46 180.14 C43.47 128.4, 87.74 78.51, 156.29 2.03 M1.85 185.79 C57.83 121.3, 109.34 59.18, 161.28 2.39 M1.85 185.79 C46.82 133.2, 89.6 84.05, 161.28 2.39 M1.59 192.19 C62.61 123.19, 129.96 48.23, 166.92 2 M1.59 192.19 C40.89 145.38, 82.18 95.16, 166.92 2 M1.99 197.83 C67.37 123.36, 128.24 42.71, 171.91 2.36 M1.99 197.83 C40.84 157.25, 82.15 110.96, 171.91 2.36 M1.72 204.23 C58.9 138.6, 111.17 75.27, 177.55 1.96 M1.72 204.23 C44.76 148.69, 92.64 96.61, 177.55 1.96 M1.46 210.62 C48.82 155.51, 96.7 101.97, 182.54 2.32 M1.46 210.62 C45.05 161.37, 91.53 108.83, 182.54 2.32 M1.86 216.27 C60.95 142.17, 124.72 77.97, 188.18 1.93 M1.86 216.27 C50.27 162.4, 96.47 107.26, 188.18 1.93 M1.6 222.66 C54.22 165.83, 110.44 102.68, 193.17 2.29 M1.6 222.66 C61.78 152.89, 121.86 83.81, 193.17 2.29 M1.99 228.31 C52.34 167.03, 105.51 105.65, 198.81 1.9 M1.99 228.31 C79.91 141.7, 155.89 53.04, 198.81 1.9 M1.73 234.71 C62.12 168.34, 114.76 103.23, 203.8 2.26 M1.73 234.71 C74 151.58, 149.11 63.57, 203.8 2.26 M1.47 241.1 C46.4 192.77, 91.83 141.57, 209.44 1.86 M1.47 241.1 C87.06 145.52, 168.02 47.82, 209.44 1.86 M1.86 246.75 C87.31 149.85, 168.37 54.41, 214.43 2.22 M1.86 246.75 C59.11 176.15, 119.66 107.77, 214.43 2.22 M1.6 253.14 C82.2 154.66, 167.25 63.53, 220.07 1.83 M1.6 253.14 C57.04 187.73, 111.51 124.87, 220.07 1.83 M2 258.79 C74.92 174.72, 148.86 91.6, 225.06 2.19 M2 258.79 C70.42 178.36, 141.04 94.59, 225.06 2.19 M1.73 265.19 C91.65 163.21, 182.13 59.38, 230.7 1.79 M1.73 265.19 C62.48 196.73, 122.74 127.1, 230.7 1.79 M1.47 271.58 C65.93 204.21, 130.91 131.79, 235.69 2.15 M1.47 271.58 C49.41 211.94, 102 151.88, 235.69 2.15 M1.87 277.23 C50.5 221.64, 100.22 163.3, 241.33 1.76 M1.87 277.23 C54.65 218.21, 105.45 158.08, 241.33 1.76 M1.61 283.62 C90.57 182.82, 181.72 82.28, 246.32 2.12 M1.61 283.62 C86.85 179.86, 173.02 79.72, 246.32 2.12 M2 289.27 C54.29 226.65, 105.87 164.48, 251.96 1.72 M2 289.27 C55.45 228.44, 108.02 168.33, 251.96 1.72 M1.74 295.66 C67.84 217.19, 137.19 136.61, 256.95 2.08 M1.74 295.66 C98.32 186.82, 192.83 76.86, 256.95 2.08 M1.48 302.06 C86.17 204.7, 170.16 108.92, 262.59 1.69 M1.48 302.06 C61.71 232.44, 121.18 164.86, 262.59 1.69 M1.87 307.71 C102.16 195, 205.39 77.93, 267.58 2.05 M1.87 307.71 C91.69 205.7, 177.87 105.79, 267.58 2.05 M1.61 314.1 C76.48 229.73, 151.3 143.8, 272.56 2.41 M1.61 314.1 C104.44 197.83, 205.14 83.74, 272.56 2.41 M2.01 319.75 C110.22 192.52, 216.66 67.25, 278.21 2.01 M2.01 319.75 C106.29 201.91, 207.35 85.87, 278.21 2.01 M1.74 326.14 C96.55 219.71, 188.73 113.45, 283.19 2.37 M1.74 326.14 C62.16 256.05, 121.99 190.38, 283.19 2.37 M1.48 332.54 C108.88 206.18, 219.3 84.47, 288.84 1.98 M1.48 332.54 C72.25 253.27, 142.08 172.36, 288.84 1.98 M1.88 338.19 C112.09 209.28, 222.85 82.21, 293.82 2.34 M1.88 338.19 C72.88 255.22, 144.48 171.16, 293.82 2.34 M1.62 344.58 C83 249.26, 162.14 157.28, 299.47 1.94 M1.62 344.58 C65.13 273.67, 126.9 201.71, 299.47 1.94 M2.01 350.23 C79.35 260.05, 154.69 171.61, 304.45 2.3 M2.01 350.23 C77.36 259.05, 154.05 171, 304.45 2.3 M1.75 356.62 C124.63 218.54, 245.4 80.22, 310.1 1.91 M1.75 356.62 C92.35 249.29, 183.23 145.14, 310.1 1.91 M1.49 363.02 C118.94 223.86, 239.21 86.71, 315.08 2.27 M1.49 363.02 C103.66 241.68, 206.2 123.58, 315.08 2.27 M1.88 368.66 C108.38 244.12, 215.59 122.12, 320.73 1.88 M1.88 368.66 C85.01 273.16, 168.76 176.91, 320.73 1.88 M1.62 375.06 C112.44 245.4, 225.06 114.34, 325.71 2.24 M1.62 375.06 C78.62 288.31, 154.3 202.61, 325.71 2.24 M2.02 380.71 C91.14 277.66, 182.92 173.87, 331.36 1.84 M2.02 380.71 C85.2 286.72, 165.05 194.27, 331.36 1.84 M1.75 387.1 C114.97 254.54, 227.64 125.3, 336.34 2.2 M1.75 387.1 C94.47 285.25, 185.08 180.37, 336.34 2.2 M1.49 393.5 C92.83 288.02, 183.42 186.1, 341.99 1.81 M1.49 393.5 C99.28 282.16, 197.6 169.51, 341.99 1.81 M1.89 399.14 C102.28 285.62, 200.72 170.12, 346.97 2.17 M1.89 399.14 C141.06 240.49, 277.23 84.18, 346.97 2.17 M1.63 405.54 C116.5 278.18, 230.39 146.99, 352.62 1.77 M1.63 405.54 C84.88 313.2, 166.79 220.11, 352.62 1.77 M2.02 411.18 C125.21 267.07, 248.12 129.43, 357.6 2.13 M2.02 411.18 C114.14 288.91, 221.92 164.11, 357.6 2.13 M1.76 417.58 C127.54 269.15, 254.02 124.29, 363.25 1.74 M1.76 417.58 C79.85 328.68, 156.03 240.55, 363.25 1.74 M1.5 423.98 C139.2 264.56, 279.13 102.23, 368.23 2.1 M1.5 423.98 C132 274.71, 262.32 124.27, 368.23 2.1 M1.89 429.62 C85.68 327.31, 169.82 229.38, 373.88 1.7 M1.89 429.62 C135.56 274.69, 271.78 117.12, 373.88 1.7 M1.63 436.02 C113.55 303.11, 228.17 170.21, 378.86 2.06 M1.63 436.02 C95.82 333.03, 186.25 227.96, 378.86 2.06 M2.02 441.66 C123.22 300.75, 243.63 163.7, 383.85 2.42 M2.02 441.66 C130.27 292.31, 257.44 145.81, 383.85 2.42 M1.76 448.06 C134.36 296.31, 267.39 144.99, 389.49 2.03 M1.76 448.06 C118.3 313.12, 238.39 174.46, 389.49 2.03 M1.5 454.46 C135.4 301.89, 269.37 149.61, 394.48 2.39 M1.5 454.46 C138.9 299.04, 273.44 143.93, 394.48 2.39 M1.9 460.1 C140.7 292.67, 286.61 126.09, 400.12 1.99 M1.9 460.1 C103.01 345.51, 205.56 226.72, 400.12 1.99 M1.64 466.5 C127.15 325.48, 250.5 186.63, 405.11 2.35 M1.64 466.5 C133.83 309.51, 267.27 156.48, 405.11 2.35 M2.03 472.14 C139.68 313.7, 277.47 155.03, 410.75 1.96 M2.03 472.14 C97.74 367.25, 192.11 258.44, 410.75 1.96 M1.77 478.54 C82.08 381.91, 167.87 286.12, 415.74 2.32 M1.77 478.54 C93.06 372.89, 187.43 266.42, 415.74 2.32 M1.51 484.94 C118.37 350.48, 235.78 213.84, 421.38 1.93 M1.51 484.94 C132.23 332.65, 265.38 180.29, 421.38 1.93 M1.9 490.58 C124.37 352.29, 247.37 208.12, 426.37 2.29 M1.9 490.58 C107.95 368.2, 215.73 244.85, 426.37 2.29 M1.64 496.98 C139.78 330.01, 282.01 166.82, 432.01 1.89 M1.64 496.98 C110.4 370.21, 221.82 242.77, 432.01 1.89 M2.69 501.87 C90.4 396.77, 180.39 293.57, 437 2.25 M2.69 501.87 C106.54 377.2, 214.66 254.45, 437 2.25 M3.09 507.51 C113.65 382.29, 222.37 256.48, 442.64 1.86 M3.09 507.51 C153.13 328.68, 305.36 151.5, 442.64 1.86 M2.82 513.91 C120.36 377.22, 236.67 245.15, 447.63 2.22 M2.82 513.91 C151.25 346.17, 297.2 177.73, 447.63 2.22 M4.53 518.04 C151.9 348.01, 300.45 176.16, 453.27 1.82 M4.53 518.04 C151.87 351.31, 295.66 186.39, 453.27 1.82 M6.89 521.42 C163.81 333.76, 324.09 148.69, 458.26 2.18 M6.89 521.42 C112.5 405.76, 214.58 287.81, 458.26 2.18 M9.26 524.8 C141.05 377.7, 272.38 225.98, 463.9 1.79 M9.26 524.8 C130.19 391.1, 249.63 255.32, 463.9 1.79 M12.93 526.67 C126.82 395.06, 239.48 264.55, 468.89 2.15 M12.93 526.67 C177.69 341.7, 340.6 152.16, 468.89 2.15 M15.95 529.29 C182.94 338.86, 349.81 147.28, 474.53 1.75 M15.95 529.29 C155.19 366.42, 295.45 204.56, 474.53 1.75 M19.62 531.16 C145.84 377.74, 278.82 226.57, 479.52 2.11 M19.62 531.16 C184.81 342.81, 346.22 156.98, 479.52 2.11 M24.61 531.52 C125.6 415.17, 230.36 293.9, 485.17 1.72 M24.61 531.52 C177.82 350.27, 333.08 170.74, 485.17 1.72 M28.94 532.64 C164.7 380.84, 298.61 227.27, 490.15 2.08 M28.94 532.64 C178.86 365.26, 326.54 195.43, 490.15 2.08 M33.93 533 C162.5 384.67, 288.27 239.08, 495.8 1.68 M33.93 533 C164.43 379.66, 297.35 227.05, 495.8 1.68 M38.92 533.36 C155.2 400.62, 274.74 265.55, 500.78 2.04 M38.92 533.36 C212.19 330.58, 390.52 127.27, 500.78 2.04 M44.56 532.97 C204.47 351.04, 358.12 172, 505.77 2.4 M44.56 532.97 C151.49 407.49, 260.69 283.24, 505.77 2.4 M49.55 533.33 C165.37 397.82, 282.38 260.51, 511.41 2.01 M49.55 533.33 C221.28 341.94, 387.71 150.39, 511.41 2.01 M55.19 532.93 C215.57 343.42, 378.07 154.53, 516.4 2.37 M55.19 532.93 C197.59 370.91, 340.76 206.67, 516.4 2.37 M60.18 533.29 C216.6 349.13, 376.23 165.01, 522.04 1.98 M60.18 533.29 C185.21 390.28, 308.08 248.49, 522.04 1.98 M65.82 532.9 C204.13 368.68, 342.73 205.97, 527.03 2.34 M65.82 532.9 C245.89 324.27, 424.06 120.04, 527.03 2.34 M70.81 533.26 C181.45 405.37, 294.15 274.15, 532.67 1.94 M70.81 533.26 C173.25 418.82, 270.24 305.84, 532.67 1.94 M76.45 532.86 C215.08 377.72, 349.02 221.47, 537.66 2.3 M76.45 532.86 C257.35 324.65, 436.95 116.9, 537.66 2.3 M81.44 533.22 C200.36 392.8, 318.61 254.5, 543.3 1.91 M81.44 533.22 C225.65 367.41, 369.07 203.01, 543.3 1.91 M87.08 532.83 C205.69 399.33, 317.44 268.55, 548.29 2.27 M87.08 532.83 C275.42 318.11, 459.6 106.22, 548.29 2.27 M92.07 533.19 C266.58 333.55, 439.48 133.13, 553.93 1.87 M92.07 533.19 C262.13 333.81, 432.84 135.91, 553.93 1.87 M97.05 533.55 C203.09 418.74, 304.07 299.78, 558.92 2.23 M97.05 533.55 C251.52 360.33, 405.21 183.93, 558.92 2.23 M102.7 533.15 C264.36 348.02, 422.46 166.14, 564.56 1.84 M102.7 533.15 C195.73 425.62, 289.98 317.86, 564.56 1.84 M107.68 533.51 C243.74 378.56, 380.58 217.12, 569.55 2.2 M107.68 533.51 C225.6 400.23, 342.92 264.87, 569.55 2.2 M113.33 533.12 C293.83 319.02, 476.4 111.6, 575.19 1.8 M113.33 533.12 C256.88 363.84, 403.76 195.37, 575.19 1.8 M118.31 533.48 C247.24 381.83, 383.13 226.86, 580.18 2.16 M118.31 533.48 C256.19 379.51, 392.79 224.02, 580.18 2.16 M123.96 533.08 C282.45 355.1, 439.57 171.13, 585.82 1.77 M123.96 533.08 C219.18 416.4, 317.56 303.97, 585.82 1.77 M128.94 533.44 C238.14 412.51, 342.13 288.88, 590.81 2.13 M128.94 533.44 C274.1 370.29, 419.09 202.71, 590.81 2.13 M134.59 533.05 C264.22 384.73, 388.43 240.9, 596.45 1.73 M134.59 533.05 C269.72 374.77, 407.67 216.21, 596.45 1.73 M139.57 533.41 C269.95 390.12, 398.59 243.32, 601.44 2.09 M139.57 533.41 C246.83 411.72, 354.41 288.82, 601.44 2.09 M145.22 533.01 C258.58 405.72, 371.74 275.69, 607.08 1.7 M145.22 533.01 C316.57 335.26, 489.86 137.46, 607.08 1.7 M150.2 533.37 C251.13 416.48, 351.21 300.69, 612.07 2.06 M150.2 533.37 C290.92 370.46, 432.84 208.14, 612.07 2.06 M155.85 532.98 C253.44 419.94, 347.11 312.06, 617.06 2.42 M155.85 532.98 C311.58 347.22, 470.19 166.53, 617.06 2.42 M160.83 533.34 C338.94 329.24, 517.07 126.71, 622.7 2.02 M160.83 533.34 C280.87 394.78, 399.33 258.37, 622.7 2.02 M166.48 532.95 C289.41 396.08, 407.61 255.18, 627.69 2.38 M166.48 532.95 C307.87 373.32, 449.49 212.88, 627.69 2.38 M171.46 533.31 C309.86 374.47, 447.25 218.49, 633.33 1.99 M171.46 533.31 C332.59 353.57, 489.93 171.63, 633.33 1.99 M177.11 532.91 C270.23 423.89, 367.01 312.21, 638.32 2.35 M177.11 532.91 C292.52 396, 409.72 260.95, 638.32 2.35 M182.09 533.27 C286.82 407.83, 394.88 283.07, 643.96 1.96 M182.09 533.27 C307.76 391.56, 432.91 247.73, 643.96 1.96 M187.74 532.88 C291.08 418.25, 392.31 301.88, 648.95 2.32 M187.74 532.88 C367.03 326.44, 546.66 118.73, 648.95 2.32 M192.72 533.24 C325.22 378.76, 456.61 225.45, 654.59 1.92 M192.72 533.24 C330.15 369.91, 468.35 210.31, 654.59 1.92 M198.37 532.84 C357.32 354, 510.97 173.94, 659.58 2.28 M198.37 532.84 C292.53 420.39, 386.93 311.44, 659.58 2.28 M203.35 533.2 C332.12 381.84, 464.89 233.83, 665.22 1.89 M203.35 533.2 C360.11 356.3, 518.1 175.13, 665.22 1.89 M208.34 533.56 C387.58 333.8, 565.21 129.56, 670.86 1.49 M208.34 533.56 C390.04 320.67, 573.11 110.49, 670.86 1.49 M213.99 533.17 C331.62 391.13, 455.29 251.72, 675.19 2.61 M213.99 533.17 C322.06 406.28, 434.15 276.99, 675.19 2.61 M218.97 533.53 C335.82 402.6, 453.85 266.7, 680.18 2.97 M218.97 533.53 C378.75 346.33, 539.94 160.09, 680.18 2.97 M224.62 533.13 C314.46 421.18, 409.96 310.61, 684.51 4.08 M224.62 533.13 C363.54 371.6, 506.33 205.82, 684.51 4.08 M229.6 533.49 C331.8 410.04, 437.99 291, 688.19 5.95 M229.6 533.49 C346.96 395.42, 464.8 259.03, 688.19 5.95 M235.25 533.1 C375.82 367.04, 519.86 205.72, 691.86 7.82 M235.25 533.1 C414.69 322.95, 595.89 113.06, 691.86 7.82 M240.23 533.46 C354.34 396.91, 471.75 261.96, 694.88 10.45 M240.23 533.46 C338.24 419.33, 435.5 308.16, 694.88 10.45 M245.88 533.06 C380.33 370.21, 519.6 211.64, 697.24 13.82 M245.88 533.06 C340.85 425.9, 432.11 320.73, 697.24 13.82 M250.86 533.42 C369.1 393.56, 489.38 252.96, 698.95 17.96 M250.86 533.42 C383.54 382.79, 516.29 229.9, 698.95 17.96 M256.51 533.03 C408.47 355.74, 561.69 177.48, 699.35 23.6 M256.51 533.03 C420.37 341.26, 586.05 149.54, 699.35 23.6 M261.49 533.39 C378.27 397.41, 498.19 262.52, 700.4 28.49 M261.49 533.39 C395.28 385.28, 526.27 236.36, 700.4 28.49 M267.14 533 C399.55 378.7, 536.84 224.47, 702.1 32.62 M267.14 533 C358.71 422.84, 452.25 316.03, 702.1 32.62 M272.12 533.36 C375.62 419.88, 475.74 303.53, 701.84 39.02 M272.12 533.36 C444.14 335.3, 613.7 139.68, 701.84 39.02 M277.77 532.96 C406.39 383.81, 538.58 233.9, 701.58 45.42 M277.77 532.96 C427.54 354.8, 580.25 180.73, 701.58 45.42 M282.75 533.32 C379.64 418.77, 476.18 307.38, 701.97 51.06 M282.75 533.32 C400.47 401.19, 515.55 268.45, 701.97 51.06 M288.4 532.93 C441.62 358.48, 595.27 185.03, 701.71 57.46 M288.4 532.93 C413.5 382.46, 540.45 236.24, 701.71 57.46 M293.38 533.29 C408.27 401.52, 523.41 267.29, 702.11 63.1 M293.38 533.29 C381 430.63, 470.23 326.99, 702.11 63.1 M299.03 532.89 C441.71 365.84, 584 199.83, 701.85 69.5 M299.03 532.89 C424.53 388.76, 547.22 246.6, 701.85 69.5 M304.01 533.25 C426.66 389.97, 550.97 248.93, 701.58 75.9 M304.01 533.25 C388.45 437.56, 470.98 343.42, 701.58 75.9 M309.66 532.86 C410.58 416.36, 512.2 298.66, 701.98 81.54 M309.66 532.86 C400.16 427.82, 493.35 320.81, 701.98 81.54 M314.64 533.22 C390.68 444.73, 469.66 351.78, 701.72 87.94 M314.64 533.22 C399.68 441.89, 480.66 348.21, 701.72 87.94 M320.29 532.82 C428.03 406.82, 538.22 280.88, 702.11 93.58 M320.29 532.82 C449.34 381.76, 581.45 230, 702.11 93.58 M325.27 533.18 C445.77 394.67, 567.41 257.1, 701.85 99.98 M325.27 533.18 C444.36 402.84, 560.13 268.31, 701.85 99.98 M330.26 533.54 C472.15 369.62, 615.43 204.57, 701.59 106.38 M330.26 533.54 C450.3 396.15, 568.22 261.06, 701.59 106.38 M335.9 533.15 C479.97 367.59, 625.83 198.68, 701.98 112.02 M335.9 533.15 C473.12 371.08, 610.8 214.06, 701.98 112.02 M340.89 533.51 C454.2 400.34, 564.69 272.07, 701.72 118.42 M340.89 533.51 C478.21 371.66, 619.41 210.49, 701.72 118.42 M346.53 533.11 C438.74 427.83, 532.46 321.39, 702.12 124.06 M346.53 533.11 C486.33 374.71, 623.67 216.14, 702.12 124.06 M351.52 533.47 C476.94 383.55, 606.22 237.66, 701.86 130.46 M351.52 533.47 C438.15 436.77, 524.02 338.26, 701.86 130.46 M357.16 533.08 C456.87 414.93, 558.59 297.42, 701.59 136.86 M357.16 533.08 C463.23 410.65, 570.25 286.77, 701.59 136.86 M362.15 533.44 C456.71 431.76, 548.26 327.48, 701.99 142.5 M362.15 533.44 C472.36 409.63, 580.18 284.99, 701.99 142.5 M367.79 533.04 C496.04 387.04, 621.65 239.84, 701.73 148.9 M367.79 533.04 C438.64 452.2, 512 368.49, 701.73 148.9 M372.78 533.41 C458.94 434.73, 546.73 334.49, 701.47 155.3 M372.78 533.41 C471.86 424.64, 566.88 315.42, 701.47 155.3 M378.42 533.01 C499.13 396.63, 615.27 261.45, 701.86 160.94 M378.42 533.01 C501.24 395.5, 622.74 255.93, 701.86 160.94 M383.41 533.37 C452.87 449.28, 523.73 369.44, 701.6 167.34 M383.41 533.37 C510.88 391.65, 634.68 248.19, 701.6 167.34 M389.05 532.98 C501.02 403.11, 616.12 270.63, 701.99 172.98 M389.05 532.98 C497.83 408.61, 608.32 282.9, 701.99 172.98 M394.04 533.34 C502.79 410.64, 608.81 289.76, 701.73 179.38 M394.04 533.34 C484.14 428.26, 575.9 322.01, 701.73 179.38 M399.68 532.94 C482.38 434.22, 567.39 337.58, 701.47 185.78 M399.68 532.94 C489.67 424.61, 584.42 316.14, 701.47 185.78 M404.67 533.3 C482.45 443.43, 560.36 356.69, 701.87 191.42 M404.67 533.3 C474.1 449.17, 545.08 368.58, 701.87 191.42 M410.31 532.91 C495.48 437.92, 580.39 339.35, 701.6 197.82 M410.31 532.91 C500.5 428.88, 594.42 323.85, 701.6 197.82 M415.3 533.27 C504.32 429.07, 596.62 322.25, 702 203.46 M415.3 533.27 C498.12 438.21, 579.9 344.42, 702 203.46 M420.94 532.87 C524.26 415.2, 621.13 301.17, 701.74 209.86 M420.94 532.87 C487.8 460.31, 552.95 385.97, 701.74 209.86 M425.93 533.23 C512.98 436.17, 595.2 339.8, 701.48 216.25 M425.93 533.23 C498.27 448.39, 571.5 362.93, 701.48 216.25 M431.57 532.84 C513.49 442.22, 594.78 350.7, 701.87 221.9 M431.57 532.84 C486.43 468.98, 542.09 401.93, 701.87 221.9 M436.56 533.2 C521.11 433.84, 603.77 339.56, 701.61 228.3 M436.56 533.2 C505.26 453.68, 573.35 376.27, 701.61 228.3 M441.55 533.56 C526.6 435.67, 610.11 337.95, 702 233.94 M441.55 533.56 C496.43 471.1, 554.36 403.95, 702 233.94 M447.19 533.16 C519.81 446, 591.82 365.91, 701.74 240.34 M447.19 533.16 C513.88 457.43, 581.22 379.42, 701.74 240.34 M452.18 533.52 C529.63 441.41, 606.33 354.09, 701.48 246.73 M452.18 533.52 C531.82 440.35, 610.39 350.64, 701.48 246.73 M457.82 533.13 C527.59 457.71, 595.65 379.1, 701.88 252.38 M457.82 533.13 C549.47 429.73, 638.48 326.28, 701.88 252.38 M462.81 533.49 C542.48 442.87, 622.19 352.49, 701.61 258.77 M462.81 533.49 C545.98 438.22, 628.63 343.62, 701.61 258.77 M468.45 533.09 C556.39 431.55, 640.15 330.55, 702.01 264.42 M468.45 533.09 C560.46 429.12, 652.37 323.46, 702.01 264.42 M473.44 533.45 C543.99 447.05, 615.25 363.74, 701.75 270.82 M473.44 533.45 C538.97 457.9, 601.88 386.91, 701.75 270.82 M479.08 533.06 C562.13 436.59, 650.96 337.45, 701.49 277.21 M479.08 533.06 C559.78 434.47, 644.12 336.2, 701.49 277.21 M484.07 533.42 C566.97 441.34, 644.2 345.51, 701.88 282.86 M484.07 533.42 C540.25 472.42, 594.5 410.37, 701.88 282.86 M489.71 533.03 C562.82 446.5, 637.69 365.16, 701.62 289.25 M489.71 533.03 C568.65 442.89, 647.53 353.55, 701.62 289.25 M494.7 533.39 C556.53 464.54, 621.03 388.03, 702.01 294.9 M494.7 533.39 C560.68 458.26, 629.44 379.46, 702.01 294.9 M500.34 532.99 C546.36 476.46, 595.51 422.25, 701.75 301.3 M500.34 532.99 C541.64 487.87, 581.24 443.6, 701.75 301.3 M505.33 533.35 C551.71 470.82, 602.72 417.51, 701.49 307.69 M505.33 533.35 C574.36 458.31, 641.8 380.91, 701.49 307.69 M510.97 532.96 C555.38 477, 604.88 427.33, 701.88 313.34 M510.97 532.96 C571.14 467.54, 628.29 400.85, 701.88 313.34 M515.96 533.32 C574.07 475.51, 628.35 413.29, 701.62 319.73 M515.96 533.32 C563.27 475.78, 610.43 422.08, 701.62 319.73 M521.6 532.92 C572.41 480.72, 617.72 422.71, 702.02 325.38 M521.6 532.92 C585.68 463.91, 643.01 394.63, 702.02 325.38 M526.59 533.28 C564.91 487.79, 605.81 447.23, 701.76 331.77 M526.59 533.28 C560.78 486.81, 598.57 444.74, 701.76 331.77 M532.23 532.89 C577.07 480.26, 622.78 430.66, 701.49 338.17 M532.23 532.89 C580.28 477.64, 627.69 420.85, 701.49 338.17 M537.22 533.25 C591.81 474.84, 650.74 412.63, 701.89 343.82 M537.22 533.25 C582.05 485.7, 621.42 438.79, 701.89 343.82 M542.86 532.85 C598.09 470.26, 645.49 416.6, 701.63 350.21 M542.86 532.85 C577.1 486.87, 616.15 444.36, 701.63 350.21 M547.85 533.21 C597.11 479.57, 639.42 426.66, 702.02 355.86 M547.85 533.21 C580.47 492, 614.66 451.77, 702.02 355.86 M553.49 532.82 C598.49 483, 643.32 427.16, 701.76 362.25 M553.49 532.82 C606.74 466.33, 665.32 402.25, 701.76 362.25 M558.48 533.18 C599 486.13, 641.29 438.97, 701.5 368.65 M558.48 533.18 C594.55 488.55, 634.76 445.23, 701.5 368.65 M563.47 533.54 C596.46 488.91, 640.06 447.66, 701.89 374.3 M563.47 533.54 C614.45 475.06, 668.24 416.75, 701.89 374.3 M569.11 533.14 C622.6 473.27, 671.63 408.7, 701.63 380.69 M569.11 533.14 C610.92 486.15, 652.58 436.55, 701.63 380.69 M574.1 533.5 C609.32 499.97, 640.27 459.8, 702.03 386.34 M574.1 533.5 C603.39 506.28, 629.6 474.9, 702.03 386.34 M579.74 533.11 C611.74 500.16, 637.09 460.84, 701.77 392.73 M579.74 533.11 C608.21 502.52, 633.67 473.43, 701.77 392.73 M584.73 533.47 C616.9 499.08, 637.84 469.48, 701.5 399.13 M584.73 533.47 C626.31 489.97, 666.97 440.14, 701.5 399.13 M590.37 533.08 C613.02 503.45, 641.17 478.8, 701.9 404.77 M590.37 533.08 C613.36 506.89, 636 482.06, 701.9 404.77 M595.36 533.44 C612.9 508.81, 641.87 477.31, 701.64 411.17 M595.36 533.44 C635.22 488.02, 675.68 443.03, 701.64 411.17 M601 533.04 C639.35 490.89, 673.09 445.43, 702.03 416.82 M601 533.04 C622.08 508.07, 644.35 483.16, 702.03 416.82 M605.99 533.4 C637.7 496.73, 664.86 461.42, 701.77 423.21 M605.99 533.4 C642.72 493.93, 677.76 454.24, 701.77 423.21 M611.63 533.01 C640.4 501.51, 668.36 468.21, 701.51 429.61 M611.63 533.01 C643.68 492.33, 676.58 452.51, 701.51 429.61 M616.62 533.37 C645.42 498.37, 677.83 468.67, 701.9 435.25 M616.62 533.37 C637.86 505.91, 660.49 477.31, 701.9 435.25 M622.26 532.97 C651.03 499.96, 671.92 473.52, 701.64 441.65 M622.26 532.97 C647.48 505.65, 672.56 474.36, 701.64 441.65 M627.25 533.33 C650.15 505.01, 668.42 483.8, 702.04 447.3 M627.25 533.33 C656.73 500.63, 683.94 465.64, 702.04 447.3 M632.89 532.94 C662.38 500.79, 684.08 468.98, 701.78 453.69 M632.89 532.94 C651.11 511.85, 671.75 487.09, 701.78 453.69 M637.88 533.3 C657.26 504.63, 679.5 480.65, 701.51 460.09 M637.88 533.3 C656.54 512.18, 672.02 495.22, 701.51 460.09 M643.52 532.9 C665.2 505.68, 692.31 484.39, 701.91 465.73 M643.52 532.9 C654.6 519.43, 667.82 502.01, 701.91 465.73 M648.51 533.26 C664.92 510.15, 682.1 493.41, 701.65 472.13 M648.51 533.26 C667.02 512.57, 687.34 488.25, 701.65 472.13 M654.15 532.87 C662.65 517.21, 674.99 507.82, 702.04 477.77 M654.15 532.87 C663.58 522.18, 675.54 510.36, 702.04 477.77 M659.14 533.23 C671.85 515.15, 681.76 500.59, 701.78 484.17 M659.14 533.23 C671.97 519.78, 681.97 505.91, 701.78 484.17 M664.78 532.83 C675.17 522.77, 682.57 511.46, 701.52 490.57 M664.78 532.83 C674.45 519.81, 686.09 509.02, 701.52 490.57 M669.77 533.19 C674.57 522.9, 686.96 517.98, 701.91 496.21 M669.77 533.19 C678.5 526.93, 684.59 517.4, 701.91 496.21 M676.07 532.04 C682.95 522.95, 696.92 511.19, 702.96 501.1 M676.07 532.04 C686.16 523.42, 694.49 513.92, 702.96 501.1 M683.02 530.14 C686.89 522.03, 697.62 515.93, 701.39 509.01 M683.02 530.14 C691.55 523.98, 696.41 511.99, 701.39 509.01" stroke="#40c057" stroke-width="0.5" fill="none"></path><path d="M32 0 M32 0 C163.64 -4.49, 296.36 -2.38, 668.67 0 M32 0 C266.48 -4.57, 502.38 -4.57, 668.67 0 M668.67 0 C686.86 -2.96, 698.02 11.87, 700.67 32 M668.67 0 C694.39 4.5, 698.31 7.34, 700.67 32 M700.67 32 C702 128.74, 700.91 222.2, 700.67 499.67 M700.67 32 C696.99 155.23, 697.43 278.31, 700.67 499.67 M700.67 499.67 C702.96 522.52, 687.05 530.77, 668.67 531.67 M700.67 499.67 C698.29 519.91, 693.88 529.08, 668.67 531.67 M668.67 531.67 C491.64 526.92, 314.64 527.92, 32 531.67 M668.67 531.67 C524.19 534, 378.53 535.07, 32 531.67 M32 531.67 C10.7 527.88, -1.93 518.11, 0 499.67 M32 531.67 C11.6 528.02, 2.62 520.23, 0 499.67 M0 499.67 C5.3 401.52, 5.09 300.6, 0 32 M0 499.67 C-3.23 381.71, -2.98 263.24, 0 32 M0 32 C-3.72 11.96, 9.94 -1.57, 32 0 M0 32 C-0.5 8.21, 12.59 2.62, 32 0" stroke="#000000" stroke-width="1" fill="none"></path></g><g stroke-linecap="round" transform="translate(10 137.30328245027607) rotate(0 185.4999999999999 265.83333333333326)"><path d="M7.86 8.16 C7.86 8.16, 7.86 8.16, 7.86 8.16 M7.86 8.16 C7.86 8.16, 7.86 8.16, 7.86 8.16 M3.66 19.09 C5.22 11.86, 9.97 8.8, 18.1 2.48 M3.66 19.09 C7.08 12.6, 9.58 8.53, 18.1 2.48 M2.75 26.24 C8.24 19.45, 15.17 15.77, 24.4 1.33 M2.75 26.24 C10.92 16.99, 17.57 7.45, 24.4 1.33 M1.83 33.39 C9.67 24, 15.25 13.64, 30.7 0.18 M1.83 33.39 C7.54 24.02, 14.78 18.96, 30.7 0.18 M1.57 39.79 C8.73 30.06, 19.15 21.66, 34.37 2.05 M1.57 39.79 C13.15 24.96, 25.96 12.36, 34.37 2.05 M1.96 45.43 C13.02 30.56, 26.63 13.76, 39.36 2.41 M1.96 45.43 C12.63 32.73, 21.85 22.68, 39.36 2.41 M1.7 51.83 C17.59 32.23, 33.38 16.6, 45 2.02 M1.7 51.83 C17.29 31.69, 36.27 11.79, 45 2.02 M1.44 58.23 C13.57 37.85, 32.93 24.53, 49.99 2.38 M1.44 58.23 C15.21 45.14, 25.8 28.94, 49.99 2.38 M1.83 63.87 C19.47 43.5, 37.7 14.83, 55.63 1.98 M1.83 63.87 C11.24 50.17, 26.02 38.82, 55.63 1.98 M1.57 70.27 C15.81 46.51, 36.27 32.28, 60.62 2.34 M1.57 70.27 C17.2 53.18, 30.45 39.7, 60.62 2.34 M1.97 75.91 C20.56 48.92, 47.52 24.04, 66.26 1.95 M1.97 75.91 C18.24 58.85, 34.49 41.14, 66.26 1.95 M1.71 82.31 C29.02 50.33, 53.52 21.99, 71.25 2.31 M1.71 82.31 C26.92 52.25, 50.09 27.28, 71.25 2.31 M1.44 88.71 C32.78 57.45, 60.4 17.87, 76.89 1.91 M1.44 88.71 C30.62 56.89, 56.98 23.6, 76.89 1.91 M1.84 94.35 C23.35 70.86, 38.77 49.3, 81.88 2.27 M1.84 94.35 C20.33 73.57, 42.87 48.54, 81.88 2.27 M1.58 100.75 C27.5 75.78, 45.85 47, 87.52 1.88 M1.58 100.75 C21.08 79.35, 41.07 58.72, 87.52 1.88 M1.97 106.39 C36.33 68.43, 63.77 35.68, 92.51 2.24 M1.97 106.39 C20.79 86.33, 41.45 64.82, 92.51 2.24 M1.71 112.79 C37.52 75.92, 68.94 38.69, 98.15 1.85 M1.71 112.79 C35.48 74.47, 67.04 38.12, 98.15 1.85 M1.45 119.19 C27.6 87.03, 56.84 52.16, 103.14 2.21 M1.45 119.19 C26.43 95.19, 50.52 66.09, 103.14 2.21 M1.84 124.83 C35.46 79.54, 78.92 40.35, 108.78 1.81 M1.84 124.83 C26.14 96.57, 47.23 67.03, 108.78 1.81 M1.58 131.23 C37.03 87.61, 76.52 44.92, 113.77 2.17 M1.58 131.23 C41.28 87.34, 80.5 40.56, 113.77 2.17 M1.98 136.87 C46.51 85.39, 98.99 26.37, 119.41 1.78 M1.98 136.87 C33.49 100.89, 65.32 63.97, 119.41 1.78 M1.72 143.27 C31.52 104.74, 64.43 69.21, 124.4 2.14 M1.72 143.27 C39.9 96.02, 81.54 50.1, 124.4 2.14 M1.45 149.67 C38.03 106.79, 76.75 65.46, 130.04 1.74 M1.45 149.67 C34.82 114.11, 67.36 75, 130.04 1.74 M1.85 155.31 C31.81 124.95, 56.9 93.26, 135.03 2.1 M1.85 155.31 C52.12 102.06, 98.58 45.93, 135.03 2.1 M1.59 161.71 C48.34 114, 94.35 61.73, 140.67 1.71 M1.59 161.71 C50.12 101.22, 102.42 43.46, 140.67 1.71 M1.98 167.35 C31.06 133.04, 67.29 94.59, 145.66 2.07 M1.98 167.35 C48.93 111.12, 95.36 57.93, 145.66 2.07 M1.72 173.75 C46.77 128.9, 86.95 83.37, 150.65 2.43 M1.72 173.75 C37.73 127.72, 76.37 84.33, 150.65 2.43 M1.46 180.14 C58.9 108.77, 124.02 37.58, 156.29 2.03 M1.46 180.14 C33.01 143.91, 64.35 107.97, 156.29 2.03 M1.85 185.79 C38.42 138, 83.55 89.7, 161.28 2.39 M1.85 185.79 C65.49 113.82, 129.41 38.88, 161.28 2.39 M1.59 192.19 C40.35 143.61, 82.64 100.32, 166.92 2 M1.59 192.19 C39.89 148.05, 79.3 103.16, 166.92 2 M1.99 197.83 C35.31 153.83, 76.72 112.98, 171.91 2.36 M1.99 197.83 C46.38 148.41, 90.2 96.34, 171.91 2.36 M1.72 204.23 C59.49 141.22, 113.27 74.26, 177.55 1.96 M1.72 204.23 C56.56 138.03, 115.68 71.75, 177.55 1.96 M1.46 210.62 C47.68 151.06, 101.64 93.23, 182.54 2.32 M1.46 210.62 C70.1 130.61, 140.47 53.45, 182.54 2.32 M1.86 216.27 C54.66 158.41, 105.98 98.33, 188.18 1.93 M1.86 216.27 C51.51 156.63, 103.35 97.08, 188.18 1.93 M1.6 222.66 C42.29 174.82, 84.86 128.43, 193.17 2.29 M1.6 222.66 C57.83 157.61, 114.39 94.71, 193.17 2.29 M1.99 228.31 C78.33 142.41, 147.55 65.28, 198.81 1.9 M1.99 228.31 C70.55 147.47, 139.12 71.42, 198.81 1.9 M1.73 234.71 C64.23 164.39, 124.77 95.43, 203.8 2.26 M1.73 234.71 C81.14 149.05, 154.97 63.96, 203.8 2.26 M1.47 241.1 C67.94 167.48, 133.27 92.79, 209.44 1.86 M1.47 241.1 C63.33 171.11, 124.45 101.35, 209.44 1.86 M1.86 246.75 C72.9 168.02, 145.53 89.89, 214.43 2.22 M1.86 246.75 C48.25 195.1, 89.82 145.03, 214.43 2.22 M1.6 253.14 C69.64 179.36, 129.41 108.25, 220.07 1.83 M1.6 253.14 C72.25 166.65, 145.75 82.21, 220.07 1.83 M2 258.79 C85.8 163.25, 172.61 66.62, 225.06 2.19 M2 258.79 C51.58 198.38, 102.93 140.65, 225.06 2.19 M1.73 265.19 C75.4 181.07, 146.88 93.9, 230.7 1.79 M1.73 265.19 C85.85 164.85, 174.11 67, 230.7 1.79 M1.47 271.58 C47.67 213.97, 97.09 157.15, 235.69 2.15 M1.47 271.58 C70.63 192.91, 136.97 116.11, 235.69 2.15 M1.87 277.23 C58.72 207.83, 118.78 135.6, 241.33 1.76 M1.87 277.23 C94.09 173.78, 183.54 68.65, 241.33 1.76 M1.61 283.62 C77.71 190.95, 159.82 102.85, 246.32 2.12 M1.61 283.62 C69.56 206.62, 135.88 131.24, 246.32 2.12 M2 289.27 C53.78 228.86, 106.14 165.44, 251.96 1.72 M2 289.27 C57.61 227.23, 114.04 166.76, 251.96 1.72 M1.74 295.66 C72.97 215.71, 142.23 131.92, 256.95 2.08 M1.74 295.66 C67.8 218.59, 130.99 145.65, 256.95 2.08 M1.48 302.06 C92.5 198.66, 182.13 95.56, 262.59 1.69 M1.48 302.06 C105.33 181.45, 210.29 63.15, 262.59 1.69 M1.87 307.71 C99.36 195.09, 192.8 86.09, 267.58 2.05 M1.87 307.71 C108.22 188.33, 213.26 67.19, 267.58 2.05 M1.61 314.1 C76.96 225.13, 157.23 138.87, 272.56 2.41 M1.61 314.1 C95.11 206.65, 188.47 99.19, 272.56 2.41 M2.01 319.75 C94.63 212.85, 185.29 108.27, 278.21 2.01 M2.01 319.75 C60.75 249.04, 123.73 176.72, 278.21 2.01 M1.74 326.14 C78.17 243.85, 151.33 155.79, 283.19 2.37 M1.74 326.14 C89.55 219.39, 181.94 115.09, 283.19 2.37 M1.48 332.54 C81.5 242.53, 162.4 152.48, 288.84 1.98 M1.48 332.54 C101.17 217.24, 203.84 98.31, 288.84 1.98 M1.88 338.19 C62.86 266.65, 125.81 191.84, 293.82 2.34 M1.88 338.19 C93.3 230.44, 183.8 125.44, 293.82 2.34 M1.62 344.58 C99.57 227.64, 197.6 113.91, 299.47 1.94 M1.62 344.58 C113.99 219.29, 222.87 93.03, 299.47 1.94 M2.01 350.23 C84.74 254.23, 167.96 159.07, 304.45 2.3 M2.01 350.23 C99.43 235.55, 198.17 122.64, 304.45 2.3 M1.75 356.62 C64.51 282.35, 130.22 208.27, 310.1 1.91 M1.75 356.62 C102.66 241.44, 203.08 125.98, 310.1 1.91 M1.49 363.02 C84.67 268.94, 170.65 174.84, 315.08 2.27 M1.49 363.02 C96.17 253.22, 188.58 146.97, 315.08 2.27 M1.88 368.66 C80.71 280.57, 157.67 193.15, 320.73 1.88 M1.88 368.66 C88.77 273.73, 172.71 177.27, 320.73 1.88 M1.62 375.06 C69.06 293.51, 140.85 213.36, 325.71 2.24 M1.62 375.06 C126.83 228.16, 252 82.18, 325.71 2.24 M2.02 380.71 C107.81 262.9, 209.02 144.66, 331.36 1.84 M2.02 380.71 C102.23 269.07, 199.45 156.67, 331.36 1.84 M1.75 387.1 C89.74 287.33, 175.5 189.83, 336.34 2.2 M1.75 387.1 C98.39 273.75, 198.07 158.94, 336.34 2.2 M1.49 393.5 C123.07 253.33, 244.84 112.7, 341.33 2.56 M1.49 393.5 C112.12 270.89, 219.27 147.57, 341.33 2.56 M1.89 399.14 C103.31 278.23, 210.19 159.4, 346.32 2.92 M1.89 399.14 C115.8 269.41, 229.59 136.86, 346.32 2.92 M1.63 405.54 C99.19 295.42, 196.14 185.15, 351.3 3.28 M1.63 405.54 C101.5 290.78, 202.96 174.15, 351.3 3.28 M2.02 411.18 C137.01 253.36, 272.72 94.37, 355.64 4.4 M2.02 411.18 C120.8 274.25, 241.39 134.71, 355.64 4.4 M1.76 417.58 C141.59 258.05, 282.15 96.36, 358.65 7.02 M1.76 417.58 C135.13 270.4, 263.45 122.51, 358.65 7.02 M1.5 423.98 C116.02 289.18, 231.36 156.78, 362.33 8.89 M1.5 423.98 C144.99 261.13, 287.8 97.49, 362.33 8.89 M1.89 429.62 C141.87 263.47, 284.73 97.88, 365.35 11.51 M1.89 429.62 C132.31 280.28, 261.2 131.56, 365.35 11.51 M1.63 436.02 C90.2 338.24, 174.28 238.5, 368.37 14.14 M1.63 436.02 C109.18 318.58, 213.41 199.55, 368.37 14.14 M2.02 441.66 C81.13 353.51, 156.87 263.71, 369.42 19.03 M2.02 441.66 C100.12 330.54, 194.65 220.62, 369.42 19.03 M1.76 448.06 C85.86 349.29, 173.6 248.56, 370.47 23.92 M1.76 448.06 C89.22 347.7, 174.94 247.61, 370.47 23.92 M1.5 454.46 C116.56 315.03, 234.63 178.23, 371.52 28.8 M1.5 454.46 C133 301.81, 263.92 149.54, 371.52 28.8 M1.9 460.1 C132.44 309.62, 262.21 159.81, 372.57 33.69 M1.9 460.1 C150.78 290.14, 298.54 120.77, 372.57 33.69 M1.64 466.5 C94.53 355.85, 189.4 246.93, 372.96 39.34 M1.64 466.5 C111.8 343.3, 219.64 218.82, 372.96 39.34 M2.03 472.14 C145.7 303.9, 291.12 138.26, 372.7 45.73 M2.03 472.14 C133.29 326.18, 261.74 176.94, 372.7 45.73 M1.77 478.54 C106.86 354.59, 212.62 230.04, 372.44 52.13 M1.77 478.54 C147.77 313.09, 294.33 145.61, 372.44 52.13 M1.51 484.94 C102.14 373.09, 199.27 260.55, 372.84 57.77 M1.51 484.94 C145.61 318.98, 290.24 153.59, 372.84 57.77 M1.9 490.58 C130.56 343.07, 260.58 193.57, 372.57 64.17 M1.9 490.58 C134.15 338.45, 268.22 183.51, 372.57 64.17 M1.64 496.98 C107.38 374.91, 216.64 252.1, 372.97 69.81 M1.64 496.98 C95.2 393.84, 186.85 289.56, 372.97 69.81 M2.69 501.87 C115.03 373.19, 224.94 244.46, 372.71 76.21 M2.69 501.87 C143.97 341.56, 286.76 177.22, 372.71 76.21 M3.74 506.76 C104.71 389.14, 204.72 272.15, 372.45 82.61 M3.74 506.76 C146.73 347.36, 286.22 186.23, 372.45 82.61 M4.79 511.65 C106.15 390.6, 210.95 271.6, 372.84 88.25 M4.79 511.65 C80.66 422.88, 158.65 333.96, 372.84 88.25 M5.84 516.53 C92.97 418.38, 174.21 320.21, 372.58 94.65 M5.84 516.53 C101.58 400.56, 201.2 286.7, 372.58 94.65 M6.89 521.42 C137.1 370.82, 265.83 222.74, 372.97 100.29 M6.89 521.42 C110 408.1, 211.98 291.55, 372.97 100.29 M9.91 524.05 C103.1 416.83, 194.91 308.77, 372.71 106.69 M9.91 524.05 C126.67 389.72, 242.82 254.33, 372.71 106.69 M13.59 525.92 C94.18 429.65, 178.07 333.37, 372.45 113.09 M13.59 525.92 C152.83 361.83, 294.15 200.66, 372.45 113.09 M16.61 528.54 C111.11 419.06, 207.41 309.72, 372.85 118.73 M16.61 528.54 C150.3 374.69, 285.65 218.38, 372.85 118.73 M19.62 531.16 C156.62 369.06, 293.22 213.28, 372.58 125.13 M19.62 531.16 C104.81 432.55, 190.6 335.06, 372.58 125.13 M24.61 531.52 C115.79 426.73, 208.02 320.26, 372.98 130.77 M24.61 531.52 C163.07 371.06, 300.71 211.34, 372.98 130.77 M28.94 532.64 C145.53 398.47, 262.54 264.58, 372.72 137.17 M28.94 532.64 C128.96 420.78, 228.47 308.16, 372.72 137.17 M33.93 533 C122.16 432.58, 207.09 337.06, 372.46 143.57 M33.93 533 C160.54 388.18, 285.39 246.13, 372.46 143.57 M38.92 533.36 C156.12 398.83, 273.38 264.88, 372.85 149.21 M38.92 533.36 C128.18 428.17, 218.07 324.9, 372.85 149.21 M44.56 532.97 C150.43 410.41, 258.98 288.09, 372.59 155.61 M44.56 532.97 C112.46 454.5, 179.51 377.09, 372.59 155.61 M49.55 533.33 C155.97 408.75, 259.98 287.16, 372.98 161.25 M49.55 533.33 C149 417.9, 247.83 303.9, 372.98 161.25 M55.19 532.93 C182.22 390.64, 303.7 250.32, 372.72 167.65 M55.19 532.93 C135.97 439.41, 214.26 349.08, 372.72 167.65 M60.18 533.29 C166.56 412.9, 272.82 290.4, 372.46 174.05 M60.18 533.29 C180.05 392.49, 300.43 252.69, 372.46 174.05 M65.82 532.9 C139.52 449.99, 209.87 365.88, 372.86 179.69 M65.82 532.9 C177.85 403.51, 291.09 271.88, 372.86 179.69 M70.81 533.26 C156.93 432.65, 244.66 333.19, 372.59 186.09 M70.81 533.26 C155.21 438.27, 239.11 340.74, 372.59 186.09 M76.45 532.86 C155.6 439.35, 233.04 348.37, 372.99 191.73 M76.45 532.86 C155.65 445.72, 233.36 356.29, 372.99 191.73 M81.44 533.22 C149.92 454.61, 221.09 376.4, 372.73 198.13 M81.44 533.22 C150.48 455.67, 219.66 377.49, 372.73 198.13 M87.08 532.83 C197.69 410.43, 304.83 286.9, 372.47 204.53 M87.08 532.83 C182.62 420.3, 282.78 305.45, 372.47 204.53 M92.07 533.19 C171.55 439.68, 253.95 346.21, 372.86 210.17 M92.07 533.19 C168.56 444.61, 244.47 356.67, 372.86 210.17 M97.05 533.55 C169.1 448.9, 237.59 370.79, 372.6 216.57 M97.05 533.55 C170.17 450.54, 243.61 365.12, 372.6 216.57 M102.7 533.15 C186.02 434.35, 271.94 338.81, 372.99 222.21 M102.7 533.15 C180.16 441.83, 257.95 351.87, 372.99 222.21 M107.68 533.51 C185.42 444.89, 263.77 356.43, 372.73 228.61 M107.68 533.51 C161.44 472.35, 217.9 409.14, 372.73 228.61 M113.33 533.12 C213.5 419.1, 312.08 300.17, 372.47 235.01 M113.33 533.12 C207.17 423.72, 300.02 316.62, 372.47 235.01 M118.31 533.48 C193.15 447.76, 268.96 367.13, 372.87 240.65 M118.31 533.48 C206.74 424.31, 298.72 319.31, 372.87 240.65 M123.96 533.08 C218.18 428.36, 309.77 316.83, 372.6 247.05 M123.96 533.08 C185.73 463.42, 244.5 396.04, 372.6 247.05 M128.94 533.44 C210.06 442.01, 289.63 350.74, 373 252.69 M128.94 533.44 C189.68 464.56, 253.11 390.8, 373 252.69 M134.59 533.05 C226.05 425.14, 317.59 317.05, 372.74 259.09 M134.59 533.05 C193.99 463.25, 255.12 394.41, 372.74 259.09 M139.57 533.41 C206.41 456.24, 271.96 382.83, 372.48 265.49 M139.57 533.41 C200.24 467.17, 258.68 399.05, 372.48 265.49 M145.22 533.01 C205.18 463.68, 262.35 391.23, 372.87 271.13 M145.22 533.01 C190.97 479.4, 236.79 424.34, 372.87 271.13 M150.2 533.37 C230.73 441.73, 311.61 351.03, 372.61 277.53 M150.2 533.37 C204.33 479.34, 254.47 420.29, 372.61 277.53 M155.85 532.98 C220.03 462.56, 284.87 386.41, 373 283.17 M155.85 532.98 C215 461.91, 277.07 388.2, 373 283.17 M160.83 533.34 C232.09 454.36, 299.23 370.93, 372.74 289.57 M160.83 533.34 C221.09 464.53, 280.86 396.08, 372.74 289.57 M166.48 532.95 C239.89 457.67, 307.65 374.51, 372.48 295.97 M166.48 532.95 C235 454.82, 304.49 373.24, 372.48 295.97 M171.46 533.31 C225.11 471.17, 280.67 407.16, 372.87 301.61 M171.46 533.31 C222.68 472.75, 275.13 411.44, 372.87 301.61 M177.11 532.91 C231.65 473.21, 287.97 408.77, 372.61 308.01 M177.11 532.91 C217.61 485.04, 261.7 438.3, 372.61 308.01 M182.09 533.27 C236.82 474.67, 286.76 413.28, 373.01 313.65 M182.09 533.27 C226.22 484.57, 267.75 437.32, 373.01 313.65 M187.74 532.88 C251.83 456.56, 322.96 377.15, 372.75 320.05 M187.74 532.88 C227.35 487.48, 267.31 440.07, 372.75 320.05 M192.72 533.24 C251.46 462.72, 305.05 395.74, 372.49 326.45 M192.72 533.24 C253.94 461.22, 314.95 393.17, 372.49 326.45 M198.37 532.84 C244.86 471.81, 295.03 420.06, 372.88 332.09 M198.37 532.84 C236.4 487.96, 276.06 443.4, 372.88 332.09 M203.35 533.2 C265.7 456.79, 336.5 378.69, 372.62 338.49 M203.35 533.2 C248.22 483.82, 286.22 437.43, 372.62 338.49 M208.34 533.56 C255.27 485.86, 300.77 432.38, 373.01 344.13 M208.34 533.56 C241.78 492.94, 280.1 451.75, 373.01 344.13 M213.99 533.17 C271.63 474.42, 321.38 408.39, 372.75 350.53 M213.99 533.17 C255.67 483.88, 296.85 436.6, 372.75 350.53 M218.97 533.53 C250.45 497.13, 287.54 461.02, 372.49 356.93 M218.97 533.53 C270.17 476.04, 320.2 421.45, 372.49 356.93 M224.62 533.13 C262.37 488.2, 305.3 441.72, 372.88 362.57 M224.62 533.13 C276.66 468.99, 331.21 406.24, 372.88 362.57 M229.6 533.49 C281.75 474.26, 333.53 408.64, 372.62 368.97 M229.6 533.49 C281.24 473.53, 332.49 413.37, 372.62 368.97 M235.25 533.1 C286.03 483.5, 324.78 431.09, 373.02 374.61 M235.25 533.1 C271.19 490.17, 303.98 449.41, 373.02 374.61 M240.23 533.46 C291.76 473.06, 343.07 417.3, 372.76 381.01 M240.23 533.46 C287.17 482.35, 330.71 429.75, 372.76 381.01 M245.88 533.06 C283.55 494.08, 324.61 445.38, 372.49 387.41 M245.88 533.06 C275.98 496.22, 307.22 463.68, 372.49 387.41 M250.86 533.42 C292.53 488.25, 330.27 442.96, 372.89 393.05 M250.86 533.42 C286.97 490.79, 326.1 445.43, 372.89 393.05 M256.51 533.03 C285.36 497.18, 318.24 463.73, 372.63 399.45 M256.51 533.03 C303.32 480.85, 346.71 430.14, 372.63 399.45 M261.49 533.39 C296.79 499.07, 327.6 464.8, 373.02 405.09 M261.49 533.39 C298.6 489.89, 336.63 447.58, 373.02 405.09 M267.14 533 C291.44 505.38, 319.24 474.61, 372.76 411.49 M267.14 533 C300.4 491.47, 336.83 450.85, 372.76 411.49 M272.12 533.36 C297.98 507.94, 321.12 476.05, 372.5 417.88 M272.12 533.36 C306.77 495.62, 336.8 455.78, 372.5 417.88 M277.77 532.96 C302.09 508.52, 327.9 476.03, 372.89 423.53 M277.77 532.96 C310.57 498.94, 337.51 464.65, 372.89 423.53 M282.75 533.32 C310.79 499.81, 335.79 473.89, 372.63 429.93 M282.75 533.32 C315.57 491.26, 353.43 453.23, 372.63 429.93 M288.4 532.93 C304.71 507.27, 330.95 485.39, 373.03 435.57 M288.4 532.93 C314.92 500.39, 340.34 470.13, 373.03 435.57 M293.38 533.29 C319.32 502.01, 340.26 479.23, 372.77 441.97 M293.38 533.29 C318.5 502.64, 345.25 475.89, 372.77 441.97 M299.03 532.89 C317.35 505.6, 344.28 483.5, 372.5 448.36 M299.03 532.89 C323.64 503.62, 348.29 475.36, 372.5 448.36 M304.01 533.25 C328.97 505.14, 346.97 481.97, 372.9 454.01 M304.01 533.25 C318.06 513.09, 336.47 495.25, 372.9 454.01 M309.66 532.86 C325.7 515.22, 334.59 502.06, 372.64 460.41 M309.66 532.86 C330.61 510.45, 349.37 484.39, 372.64 460.41 M314.64 533.22 C334.7 508.14, 349.84 489.45, 373.03 466.05 M314.64 533.22 C335.74 507.34, 357.35 481.55, 373.03 466.05 M320.29 532.82 C336.15 515.55, 348.2 502.34, 372.77 472.45 M320.29 532.82 C342.74 508.56, 360.45 486.28, 372.77 472.45 M325.27 533.18 C341.31 514.08, 350.14 500.83, 372.51 478.84 M325.27 533.18 C343.49 514.26, 357.86 493.85, 372.51 478.84 M330.26 533.54 C344.34 520.71, 355.87 507.42, 372.9 484.49 M330.26 533.54 C340.32 519.44, 353.09 505.54, 372.9 484.49 M335.9 533.15 C349.21 519, 361.69 504.49, 372.64 490.88 M335.9 533.15 C345.35 522.32, 356.15 509.43, 372.64 490.88 M340.89 533.51 C352.13 516.15, 360.94 508.62, 373.04 496.53 M340.89 533.51 C346.91 524.84, 354.38 518.59, 373.04 496.53 M347.85 531.6 C354.99 518.57, 365.05 512.8, 373.43 502.17 M347.85 531.6 C359.18 519.65, 365.33 512.12, 373.43 502.17 M354.14 530.46 C355.82 525.38, 363.86 518.4, 372.51 509.32 M354.14 530.46 C360.83 524.69, 364.24 516.21, 372.51 509.32" stroke="#15aabf" stroke-width="0.5" fill="none"></path><path d="M32 0 M32 0 C100.64 -2.26, 170.47 1.28, 339 0 M32 0 C139.78 -2.91, 244.41 -1.92, 339 0 M339 0 C362.55 -2.81, 370.53 14.32, 371 32 M339 0 C360.74 -2.05, 372.13 6.84, 371 32 M371 32 C370.97 160.58, 368.64 291.95, 371 499.67 M371 32 C368.78 204.25, 369.32 378.28, 371 499.67 M371 499.67 C371.36 523.79, 364.23 532, 339 531.67 M371 499.67 C368.94 517.17, 362.1 531.01, 339 531.67 M339 531.67 C224.82 532.65, 110.68 531.72, 32 531.67 M339 531.67 C223.79 533.79, 107.57 535.26, 32 531.67 M32 531.67 C13.59 531.99, 3.05 518.66, 0 499.67 M32 531.67 C8.78 528.5, 0.22 518.08, 0 499.67 M0 499.67 C-1.33 311.27, -1.85 126.89, 0 32 M0 499.67 C0.36 389.62, 0.05 277.54, 0 32 M0 32 C2.89 9.75, 13.19 3.67, 32 0 M0 32 C1.47 8.81, 13.77 -0.91, 32 0" stroke="#000000" stroke-width="1" fill="none"></path></g><g stroke-linecap="round" transform="translate(64.8092886233801 451.36419735912466) rotate(0 133.5 43)"><path d="M21.5 0 M21.5 0 C102.22 0.33, 184.12 -1.34, 245.5 0 M21.5 0 C80.61 0.17, 140.89 -0.47, 245.5 0 M245.5 0 C260.6 0.18, 267.8 7.38, 267 21.5 M245.5 0 C258.66 0.97, 267.68 6.06, 267 21.5 M267 21.5 C266.07 33.27, 269.07 43.65, 267 64.5 M267 21.5 C266.66 37.38, 267.07 52.58, 267 64.5 M267 64.5 C266.14 77.81, 261.12 86.82, 245.5 86 M267 64.5 C267.4 79.84, 260.14 85.25, 245.5 86 M245.5 86 C183.16 86.65, 124.05 85.55, 21.5 86 M245.5 86 C168.09 85.83, 91.79 85.32, 21.5 86 M21.5 86 C6.73 86.2, 0.31 78.21, 0 64.5 M21.5 86 C7 87.39, 0.47 77.2, 0 64.5 M0 64.5 C-0.88 52.39, 0.98 42.96, 0 21.5 M0 64.5 C0.27 52.45, -0.11 42.21, 0 21.5 M0 21.5 C-0.27 6.62, 7.17 -0.31, 21.5 0 M0 21.5 C1.5 6.78, 9.05 0.42, 21.5 0" stroke="#000000" stroke-width="1" fill="none"></path></g><g transform="translate(90.3092886233801 476.36419735912466) rotate(0 108 18)"><text x="108" y="25" font-family="Virgil, Segoe UI Emoji" font-size="28px" fill="#000000" text-anchor="middle" style="white-space: pre;" direction="ltr">Raspberry PI 3</text></g><g stroke-linecap="round" transform="translate(56.78409657919008 262.25000000000006) rotate(0 133.5 43)"><path d="M21.5 0 M21.5 0 C68.27 1.06, 115.9 1.48, 245.5 0 M21.5 0 C89.89 0.51, 158.9 1.16, 245.5 0 M245.5 0 C260.69 -1.46, 267.43 5.94, 267 21.5 M245.5 0 C257.93 -0.56, 266 8.13, 267 21.5 M267 21.5 C266.48 32.88, 268.28 45.19, 267 64.5 M267 21.5 C266.87 35.62, 266.15 49.54, 267 64.5 M267 64.5 C268.69 77.78, 260.91 84.46, 245.5 86 M267 64.5 C266.69 77.34, 259.58 84.93, 245.5 86 M245.5 86 C172.41 83.81, 98.82 84.52, 21.5 86 M245.5 86 C184.41 83.91, 121.77 84.56, 21.5 86 M21.5 86 C5.85 86.43, 1.66 79.86, 0 64.5 M21.5 86 C5.2 86.13, 2.12 78.62, 0 64.5 M0 64.5 C0.61 48.72, -0.59 30.35, 0 21.5 M0 64.5 C0.57 54.52, -0.01 46.93, 0 21.5 M0 21.5 C-0.96 8.78, 8.46 0.86, 21.5 0 M0 21.5 C0.24 9.12, 6.93 -1.83, 21.5 0" stroke="#000000" stroke-width="1" fill="none"></path></g><g transform="translate(100.28409657919008 287.25000000000006) rotate(0 90 18)"><text x="90" y="25" font-family="Virgil, Segoe UI Emoji" font-size="28px" fill="#000000" text-anchor="middle" style="white-space: pre;" direction="ltr">Hikvision CAM</text></g><g transform="translate(194.86742991252345 320.1666666666667) rotate(0 57.5 10)"><text x="0" y="16" font-family="Cascadia, Segoe UI Emoji" font-size="16px" fill="#000000" text-anchor="start" style="white-space: pre;" direction="ltr">192.168.1.64</text></g><g transform="translate(77.93631147144663 514.2111693241343) rotate(0 57.5 10)"><text x="0" y="16" font-family="Cascadia, Segoe UI Emoji" font-size="16px" fill="#000000" text-anchor="start" style="white-space: pre;" direction="ltr">192.168.1.10</text></g><g stroke-linecap="round" transform="translate(488.1174299125237 202.0833333333332) rotate(0 133.5 43)"><path d="M21.5 0 M21.5 0 C77.99 -0.51, 130.51 -0.3, 245.5 0 M21.5 0 C73.99 1.16, 125.2 0.93, 245.5 0 M245.5 0 C258.31 0.99, 267.38 7.25, 267 21.5 M245.5 0 C259.95 -0.76, 269.27 6.53, 267 21.5 M267 21.5 C264.96 35.01, 264.89 52.51, 267 64.5 M267 21.5 C266.32 37.32, 266.18 52.59, 267 64.5 M267 64.5 C268.37 78.71, 261.16 86.3, 245.5 86 M267 64.5 C265.61 80.16, 258.76 87.23, 245.5 86 M245.5 86 C190.54 83.38, 135.37 84.3, 21.5 86 M245.5 86 C157.11 84.66, 69.44 85.63, 21.5 86 M21.5 86 C5.37 87.91, 0.08 77.16, 0 64.5 M21.5 86 C9.16 88.12, -1.14 79.36, 0 64.5 M0 64.5 C1.46 48.09, 0.64 29.74, 0 21.5 M0 64.5 C-0.6 49.4, 1.16 36.03, 0 21.5 M0 21.5 C-0.96 6.34, 6.15 -0.38, 21.5 0 M0 21.5 C-1.47 7.22, 7.43 -0.87, 21.5 0" stroke="#000000" stroke-width="1" fill="none"></path></g><g transform="translate(567.1174299125237 227.0833333333332) rotate(0 54.5 18)"><text x="54.5" y="25" font-family="Virgil, Segoe UI Emoji" font-size="28px" fill="#000000" text-anchor="middle" style="white-space: pre;" direction="ltr">SERVER</text></g><g transform="translate(617.9507632458572 260.08333333333337) rotate(0 62 10)"><text x="0" y="16" font-family="Cascadia, Segoe UI Emoji" font-size="16px" fill="#000000" text-anchor="start" style="white-space: pre;" direction="ltr">192.168.0.200</text></g><g stroke-linecap="round" transform="translate(844.5340965791904 362.0833333333332) rotate(0 133.5 43)"><path d="M21.5 0 M21.5 0 C65.79 -0.99, 111.73 1.33, 245.5 0 M21.5 0 C97.35 -0.26, 173.18 -1.37, 245.5 0 M245.5 0 C259.76 1.97, 268.29 7.05, 267 21.5 M245.5 0 C258.94 0.07, 265.2 7.63, 267 21.5 M267 21.5 C266.58 38.97, 266.11 56.92, 267 64.5 M267 21.5 C267.24 29.97, 266.02 39.16, 267 64.5 M267 64.5 C267.13 77.3, 260.12 86.67, 245.5 86 M267 64.5 C265.8 78.57, 261.57 86.66, 245.5 86 M245.5 86 C157.18 84.74, 67.52 86.33, 21.5 86 M245.5 86 C200.16 87.52, 154.68 87.15, 21.5 86 M21.5 86 C8.03 84.9, 0.02 76.99, 0 64.5 M21.5 86 C7.49 84.66, -1 79.08, 0 64.5 M0 64.5 C1.4 53.21, -2.27 44.87, 0 21.5 M0 64.5 C-0.74 48.03, -0.16 31.56, 0 21.5 M0 21.5 C-0.96 6.54, 6.72 -0.83, 21.5 0 M0 21.5 C0.24 7.14, 7.22 1.29, 21.5 0" stroke="#000000" stroke-width="1" fill="none"></path></g><g transform="translate(928.0340965791904 387.0833333333332) rotate(0 50 18)"><text x="50" y="25" font-family="Virgil, Segoe UI Emoji" font-size="28px" fill="#000000" text-anchor="middle" style="white-space: pre;" direction="ltr">Frigate</text></g><g transform="translate(938.7840965791895 297.5) rotate(0 47 18)"><text x="0" y="25" font-family="Virgil, Segoe UI Emoji" font-size="28px" fill="#000000" text-anchor="start" style="white-space: pre;" direction="ltr">Docker</text></g><g stroke-linecap="round"><g transform="translate(756.9888324626152 285.27481469494217) rotate(0 29.405918296085133 8.00709361111356)"><path d="M0.56 -0.79 C10.59 2.13, 49.72 14.14, 59.41 16.8 M-0.6 1.41 C9.35 4.06, 48.85 12.68, 58.58 15.13" stroke="#000000" stroke-width="1" fill="none"></path></g></g><mask></mask><g stroke-linecap="round"><g transform="translate(839.0227356323796 514.8225160267451) rotate(0 -253.02339017116628 -16.716850238682724)"><path d="M0 0 C-84.34 -5.57, -421.71 -27.86, -506.05 -33.43 M0 0 C-84.34 -5.57, -421.71 -27.86, -506.05 -33.43" stroke="#c92a2a" stroke-width="4" fill="none"></path></g></g><mask></mask><g stroke-linecap="round"><g transform="translate(180.5003953274695 449.5977851077437) rotate(0 -30.66351551958269 -48.78248030249088)"><path d="M0 0 C-10.22 -16.26, -51.11 -81.3, -61.33 -97.56 M0 0 C-10.22 -16.26, -51.11 -81.3, -61.33 -97.56" stroke="#000000" stroke-width="1" fill="none"></path></g></g><mask></mask><g transform="translate(134.89829393831485 149.9426718535903) rotate(0 57.5 20)"><text x="0" y="32" font-family="Cascadia, Segoe UI Emoji" font-size="32.250000000000014px" fill="#000000" text-anchor="start" style="white-space: pre;" direction="ltr">SITE A</text></g><g transform="translate(740.7840965791902 138.9583333333332) rotate(0 57.5 20)"><text x="0" y="32" font-family="Cascadia, Segoe UI Emoji" font-size="32.250000000000014px" fill="#000000" text-anchor="start" style="white-space: pre;" direction="ltr">SITE B</text></g><g stroke-linecap="round" transform="translate(820.7840965791904 273.33333333333303) rotate(0 156.6666666666664 178.1666666666667)"><path d="M32 0 M32 0 C115.39 -2.2, 196.36 3.69, 281.33 0 M32 0 C116.36 0.41, 202.99 0.53, 281.33 0 M281.33 0 C302.11 -0.64, 310.43 14.34, 313.33 32 M281.33 0 C302.35 -0.99, 317.74 14.51, 313.33 32 M313.33 32 C316.18 111.77, 319.06 190.02, 313.33 324.33 M313.33 32 C313.18 145.27, 312.32 256.43, 313.33 324.33 M313.33 324.33 C312.6 348.38, 299.93 356.49, 281.33 356.33 M313.33 324.33 C313.51 349.82, 298.71 358.33, 281.33 356.33 M281.33 356.33 C230.81 359.38, 177.46 360.69, 32 356.33 M281.33 356.33 C191.76 353.55, 99.88 355.48, 32 356.33 M32 356.33 C9.1 353.9, -3.11 345.54, 0 324.33 M32 356.33 C14.92 352.4, -1.77 348.57, 0 324.33 M0 324.33 C2.29 242.62, -1.91 163.38, 0 32 M0 324.33 C-0.55 260.33, 1.34 194.71, 0 32 M0 32 C-0.96 11.21, 13.74 -3.88, 32 0 M0 32 C-2.19 8.79, 7.84 3.99, 32 0" stroke="#000000" stroke-width="1" fill="none"></path></g><g stroke-linecap="round"><g transform="translate(269.7840965791904 25.999999999999943) rotate(0 69.10951038288584 -1.0243077227224715)"><path d="M-0.77 -0.11 C22.39 -0.31, 115.96 -1.65, 138.99 -1.94 M1.02 -1.22 C24.08 -1.16, 115.25 -0.64, 138.39 -0.54" stroke="#343a40" stroke-width="1" fill="none"></path></g></g><mask></mask><g stroke-linecap="round"><g transform="translate(269.1174299125239 54.66666666666663) rotate(0 70 -0.8333333333333428)"><path d="M0 0 C23.33 -0.28, 116.67 -1.39, 140 -1.67 M0 0 C23.33 -0.28, 116.67 -1.39, 140 -1.67" stroke="#c92a2a" stroke-width="4" fill="none"></path></g></g><mask></mask><g transform="translate(424.78409657919065 10) rotate(0 77 12.5)"><text x="0" y="20" font-family="Cascadia, Segoe UI Emoji" font-size="20px" fill="#000000" text-anchor="start" style="white-space: pre;" direction="ltr">LOCAL NETWORK</text></g><g transform="translate(426.9507632458574 41.333333333333314) rotate(0 65.5 12.5)"><text x="0" y="20" font-family="Cascadia, Segoe UI Emoji" font-size="20px" fill="#c92a2a" text-anchor="start" style="white-space: pre;" direction="ltr">VPN NETWORK</text></g><g transform="translate(218.28155242633295 514.2663075267255) rotate(0 52.5 10)"><text x="0" y="16" font-family="Cascadia, Segoe UI Emoji" font-size="16px" fill="#c92a2a" text-anchor="start" style="white-space: pre;" direction="ltr">10.83.153.1</text></g><g transform="translate(859.8044498020492 556.6934849963243) rotate(0 52.5 10)"><text x="0" y="16" font-family="Cascadia, Segoe UI Emoji" font-size="16px" fill="#c92a2a" text-anchor="start" style="white-space: pre;" direction="ltr">10.83.153.3</text></g><g stroke-linecap="round" transform="translate(843.3044498020492 487.69348499632434) rotate(0 133.5 48)"><path d="M24 0 M24 0 C72.04 -1.15, 121.37 0.82, 243 0 M24 0 C100.81 1.37, 178.09 0.49, 243 0 M243 0 C257.25 -1.13, 266.91 6.92, 267 24 M243 0 C260.37 -0.05, 266.77 6.05, 267 24 M267 24 C267.41 38.19, 265.81 53.22, 267 72 M267 24 C267.03 32.9, 266.88 42.93, 267 72 M267 72 C266.3 89.69, 259.76 95.53, 243 96 M267 72 C268.86 86.8, 260.87 95.83, 243 96 M243 96 C164.47 95.07, 84.71 93.81, 24 96 M243 96 C195.86 95.68, 150.04 96.08, 24 96 M24 96 C7.64 96.93, 0.9 89.48, 0 72 M24 96 C9.26 97.13, 1.7 86.21, 0 72 M0 72 C0.3 56.06, 1.32 43.13, 0 24 M0 72 C1.02 57.35, -0.38 43.66, 0 24 M0 24 C1.64 8.57, 7.2 -0.91, 24 0 M0 24 C-1.36 7.88, 8.77 -1.56, 24 0" stroke="#000000" stroke-width="1" fill="none"></path></g><g transform="translate(910.3044498020492 517.6934849963243) rotate(0 66.5 18)"><text x="66.5" y="25" font-family="Virgil, Segoe UI Emoji" font-size="28px" fill="#000000" text-anchor="middle" style="white-space: pre;" direction="ltr">Wireguard</text></g><g stroke-linecap="round"><g transform="translate(959.8044498020492 446.69348499632434) rotate(0 0.17762876860797405 19.053802103102186)"><path d="M-0.88 -0.39 C-0.84 5.9, 0.95 32.1, 1.24 38.82 M0.85 -1.63 C0.67 5.26, 0.55 32.6, 0.42 39.74" stroke="#862e9c" stroke-width="4" fill="none"></path></g></g><mask></mask><g transform="translate(992.3044498020492 562.6934849963243) rotate(0 52.5 10)"><text x="0" y="16" font-family="Cascadia, Segoe UI Emoji" font-size="16px" fill="#862e9c" text-anchor="start" style="white-space: pre;" direction="ltr">172.100.1.2</text></g><g transform="translate(994.3044498020492 425.69348499632434) rotate(0 52.5 10)"><text x="0" y="16" font-family="Cascadia, Segoe UI Emoji" font-size="16px" fill="#862e9c" text-anchor="start" style="white-space: pre;" direction="ltr">172.100.1.1</text></g><g transform="translate(425.30444980204925 69.19348499632434) rotate(0 100.5 12.5)"><text x="0" y="20" font-family="Cascadia, Segoe UI Emoji" font-size="20px" fill="#862e9c" text-anchor="start" style="white-space: pre;" direction="ltr">CONTAINER NETWORK</text></g><g stroke-linecap="round"><g transform="translate(268.80444980204925 83.52681832965769) rotate(0 70 -0.8333333333333428)"><path d="M0 0 C23.33 -0.28, 116.67 -1.39, 140 -1.67 M0 0 C23.33 -0.28, 116.67 -1.39, 140 -1.67" stroke="#862e9c" stroke-width="4" fill="none"></path></g></g><mask></mask></svg>
